<svg width="71" height="105" viewBox="0 0 71 105" fill="none" xmlns="http://www.w3.org/2000/svg">
<path d="M36.9107 79.0501L23.3215 84.3966L23.8359 100.2L42.9701 90.2431L36.9107 79.0501Z" fill="#F15A24"/>
<path d="M51.313 30.6474L4.40932 86.5942L18.9987 84.8989L34.2455 65.2155L48.6037 39.7529L59.1911 19.95L63.4925 16.0132L68.3525 4.93935L58.2723 16.0249L51.313 30.6474Z" fill="black"/>
<path d="M60.134 47.3571L44.1939 91.3898L46.4132 93.4691L59.0752 59.0403L60.134 47.3571Z" fill="black"/>
<path d="M68.3525 4.93935L58.2723 16.0249L51.313 30.6474L4.40932 86.5942L18.9987 84.8989M68.3525 4.93935L66.8074 20.6512L61.3769 33.642L60.134 47.3571M68.3525 4.93935L63.4925 16.0132M36.9107 79.0501L23.3215 84.3966M36.9107 79.0501L42.9701 90.2431M36.9107 79.0501L63.4925 16.0132M23.3215 84.3966L23.8359 100.2L42.9701 90.2431M23.3215 84.3966L18.9987 84.8989M42.9701 90.2431L46.4132 93.4691M18.9987 84.8989L34.2455 65.2155L48.6037 39.7529L59.1911 19.95L63.4925 16.0132M60.134 47.3571L44.1939 91.3898L46.4132 93.4691M60.134 47.3571L59.0752 59.0403M46.4132 93.4691L55.2082 101.71L59.0752 59.0403M46.4132 93.4691L59.0752 59.0403" stroke="black" stroke-width="3"/>
</svg>
